<?xml version="1.0" encoding="iso-8859-1"?>
<!-- Generator: Adobe Illustrator 16.0.0, SVG Export Plug-In . SVG Version: 6.00 Build 0)  -->
<!DOCTYPE svg PUBLIC "-//W3C//DTD SVG 1.1//EN" "http://www.w3.org/Graphics/SVG/1.1/DTD/svg11.dtd">
<svg version="1.1" id="Layer_1" xmlns="http://www.w3.org/2000/svg" xmlns:xlink="http://www.w3.org/1999/xlink" x="0px" y="0px"
	 width="192.756px" height="192.756px" viewBox="0 0 192.756 192.756" style="enable-background:new 0 0 192.756 192.756;"
	 xml:space="preserve">
<g>
	<polygon style="fill-rule:evenodd;clip-rule:evenodd;fill:#FFFFFF;" points="0,0 192.756,0 192.756,192.756 0,192.756 0,0 	"/>
	<polygon style="fill-rule:evenodd;clip-rule:evenodd;fill:#BD6541;" points="20.876,2.834 171.881,2.834 171.881,189.922 
		20.876,189.922 20.876,2.834 	"/>
	<path style="fill-rule:evenodd;clip-rule:evenodd;fill:#4BB8EF;" d="M33.115,53.223c-3.497,8.424-5.246,17.485-5.246,26.704
		c0,9.378,1.749,18.28,5.246,26.862c3.497,8.107,8.424,15.578,14.783,21.936c6.358,6.357,13.829,11.445,22.094,14.783
		c8.425,3.496,17.485,5.404,26.704,5.404c9.22,0,18.279-1.908,26.705-5.404c8.266-3.338,15.736-8.426,22.094-14.783
		s11.285-13.828,14.783-21.936c3.656-8.582,5.562-17.484,5.562-26.862c0-9.219-1.906-18.28-5.562-26.704
		c-3.498-8.266-8.266-15.577-14.783-21.935c-6.357-6.358-13.828-11.445-22.094-14.942c-8.426-3.338-17.484-5.246-26.705-5.246
		c-9.219,0-18.279,1.908-26.704,5.246c-8.265,3.497-15.736,8.583-22.094,14.942C41.54,37.646,36.612,44.957,33.115,53.223
		L33.115,53.223z"/>
	<path style="fill-rule:evenodd;clip-rule:evenodd;fill:#BD6541;" d="M58.866,112.83h13.669V46.07H58.866V112.83L58.866,112.83z
		 M119.268,60.693h14.305V46.07h-14.305V60.693L119.268,60.693z M118.949,71.82v27.499c0.318,3.975,0.477,6.836,0.795,9.219
		c0.795,3.021,1.908,4.77,3.656,6.199l12.715-7.152c-1.748-0.795-2.861-2.385-3.654-4.291c0.793-1.271,1.111-2.861,1.111-4.293
		V70.39c-0.318-1.749-1.43-3.179-2.701-4.451c-1.59-1.113-3.18-1.59-5.088-1.59c-4.926,0-9.219,2.066-12.715,6.676L118.949,71.82
		L118.949,71.82z M100.67,43.368L73.966,70.23l7.757,7.757l-7.757,8.138l27.976,27.818l9.855-9.855L85.654,77.945l24.871-24.723
		L100.67,43.368L100.67,43.368z"/>
	<path style="fill-rule:evenodd;clip-rule:evenodd;fill:#C6CDD2;" d="M141.52,162.424c-2.225-2.385-4.768-3.498-7.787-3.498
		c-2.861,0.318-5.564,1.271-7.631,3.498c-2.383,2.064-3.496,4.768-3.496,7.629s1.113,5.562,3.496,7.629
		c2.066,2.227,4.77,3.18,7.631,3.18c3.02,0,5.562-0.953,7.787-3.18c2.066-2.066,3.18-4.768,3.18-7.629
		C144.699,166.873,143.586,164.172,141.52,162.424L141.52,162.424z M51.872,180.385h4.292v-20.982h-4.292V180.385L51.872,180.385z
		 M65.224,158.607l-8.583,8.584l2.593,2.334l-2.593,2.594l9.06,8.742l2.861-3.18l-8.175-8.176l8.016-7.719L65.224,158.607
		L65.224,158.607z M69.197,180.385h4.451v-20.982h-4.451V180.385L69.197,180.385z M74.443,163.377h9.537v-3.975h-9.537V163.377
		L74.443,163.377z M74.443,171.961h8.742v-3.975h-8.742V171.961L74.443,171.961z M74.443,180.385h9.537v-3.975h-9.537V180.385
		L74.443,180.385z M85.251,180.385h4.609v-17.672l9.696,16.559l0.637-0.455v1.568h4.451v-20.982h-4.451v18.26l-9.855-16.828
		l-0.477,0.34v-1.771h-4.609V180.385L85.251,180.385z M105.916,163.377h12.08l-10.969,10.967l2.297,2.066h-3.408v3.975h16.689
		v-3.975h-11.604l10.65-10.65l-2.65-2.383h3.604v-3.975h-16.689V163.377L105.916,163.377z M138.5,165.283
		c1.432,1.271,1.908,2.861,1.908,4.77s-0.477,3.496-1.908,4.768c-1.271,1.271-2.861,1.908-4.768,1.908
		c-1.75,0-3.338-0.637-4.77-1.908c-1.271-1.271-1.748-2.859-1.748-4.768s0.477-3.498,1.748-4.77c1.432-1.271,3.02-1.906,4.77-2.066
		C135.639,163.377,137.229,164.012,138.5,165.283L138.5,165.283z"/>
</g>
</svg>
